<?xml version="1.0"?>

<!-- Created with Inkscape (http://www.inkscape.org/) -->

<svg xmlns:dc="http://purl.org/dc/elements/1.1/" xmlns:cc="http://creativecommons.org/ns#" xmlns:rdf="http://www.w3.org/1999/02/22-rdf-syntax-ns#" xmlns:svg="http://www.w3.org/2000/svg" xmlns="http://www.w3.org/2000/svg" xmlns:sodipodi="http://sodipodi.sourceforge.net/DTD/sodipodi-0.dtd" xmlns:inkscape="http://www.inkscape.org/namespaces/inkscape" width="19.342245" height="20.74939" viewBox="0 0 19.342245 20.74939" version="1.1" id="svg4793" inkscape:version="0.92pre1 unknown" sodipodi:docname="logo_sans_texte.svg">
  <defs id="defs4787"></defs>
  <sodipodi:namedview id="base" pagecolor="#ffffff" bordercolor="#666666" borderopacity="1.0" inkscape:pageopacity="0.0" inkscape:pageshadow="2" inkscape:zoom="1.4" inkscape:cx="68.64289" inkscape:cy="-219.28061" inkscape:document-units="mm" inkscape:current-layer="g3469" showgrid="false" fit-margin-top="0" fit-margin-left="0" fit-margin-right="0" fit-margin-bottom="0" inkscape:window-width="1879" inkscape:window-height="1056" inkscape:window-x="1961" inkscape:window-y="24" inkscape:window-maximized="1"></sodipodi:namedview>
  <metadata id="metadata4790">
    <rdf:rdf>
      <cc:work rdf:about="">
        <dc:format>image/svg+xml</dc:format>
        <dc:type rdf:resource="http://purl.org/dc/dcmitype/StillImage"></dc:type>
        <dc:title></dc:title>
      </cc:work>
    </rdf:rdf>
  </metadata>
  <g inkscape:label="Calque 1" inkscape:groupmode="layer" id="layer1" transform="translate(-4.8792792,-4.3531928)">
    <g id="g3343" transform="matrix(0.10168141,0,0,0.10514698,-35.102325,-9.9493341)">
      <g id="g3934" transform="translate(245.96366,-9.6548659)">
        <g id="g3345">
          <g id="g3347">
            <g id="g3349">
              <g id="g3351">
                <g id="g3353">
                  <rect style="fill:#0c4684" x="269.20599" y="241.339" width="4.8340001" height="27.513" id="rect3355"></rect>
                </g>
              </g>
              <polygon style="fill:#0c4684" points="283.074,229.007 283.074,242.234 271.623,248.846 260.169,242.234 260.169,229.007 271.623,222.399 " id="polygon3357"></polygon>
            </g>
            <g id="g3359">
              <g id="g3361">
                <g id="g3363">
                  <rect style="fill:#e7442f" x="269.207" y="156.46001" width="4.8340001" height="27.514999" id="rect3365"></rect>
                </g>
              </g>
              <polygon style="fill:#e7442f" points="260.171,196.302 260.171,183.078 271.623,176.465 283.076,183.078 283.076,196.302 271.623,202.912 " id="polygon3367"></polygon>
            </g>
          </g>
          <g id="g3369">
            <g id="g3371">
              <g id="g3373">
                <g id="g3375">
                  <rect style="fill:#78c7c9" x="215.42799" y="210.24001" width="27.513" height="4.8330002" id="rect3377"></rect>
                </g>
              </g>
              <polygon style="fill:#78c7c9" points="237.207,219.266 237.207,206.043 248.658,199.434 260.111,206.043 260.111,219.266 248.658,225.88 " id="polygon3379"></polygon>
              <polygon style="fill:#bb71ac" points="220.379,208.44 220.379,216.867 213.083,221.081 205.784,216.867 205.784,208.44 213.083,204.226 " id="polygon3381"></polygon>
            </g>
            <g id="g3383">
              <g id="g3385">
                <g id="g3387">
                  <rect style="fill:#008d36" x="300.30801" y="210.24001" width="27.511999" height="4.8330002" id="rect3389"></rect>
                </g>
              </g>
              <polygon style="fill:#008d36" points="306.041,206.043 306.041,219.266 294.59,225.88 283.136,219.266 283.136,206.043 294.59,199.434 " id="polygon3391"></polygon>
              <polygon style="fill:#008d36" points="337.465,208.442 337.465,216.869 330.168,221.083 322.869,216.869 322.869,208.442 330.168,204.228 " id="polygon3393"></polygon>
            </g>
          </g>
        </g>
        <g id="g3395">
          <g id="g3397">
            <g id="g3399">
              <g id="g3401">
                <g id="g3403">
                  <rect style="fill:#bdbcbc" x="183.252" y="327.37601" width="27.511999" height="4.8330002" id="rect3405"></rect>
                </g>
              </g>
              <polygon style="fill:#bdbcbc" points="188.986,323.179 188.986,336.402 177.535,343.016 166.081,336.402 166.081,323.179 177.535,316.569 " id="polygon3407"></polygon>
              <polygon style="fill:#e6007e" points="205.813,334.01 205.813,325.582 213.11,321.367 220.409,325.582 220.409,334.01 213.11,338.222 " id="polygon3409"></polygon>
            </g>
          </g>
        </g>
        <g id="g3411">
          <g id="g3413">
            <g id="g3415">
              <polygon style="fill:#e7442f" points="278.923,149.891 278.923,158.318 271.624,162.533 264.325,158.318 264.325,149.891 271.624,145.679 " id="polygon3417"></polygon>
            </g>
          </g>
        </g>
        <g id="g3419">
          <g id="g3421">
            <g id="g3423">
              <g id="g3425">
                <g id="g3427">
                  <rect style="fill:#e6007e" x="210.664" y="299.90399" width="4.835" height="27.514" id="rect3429"></rect>
                </g>
              </g>
              <polygon style="fill:#e6007e" points="224.534,287.575 224.534,300.803 213.083,307.412 201.629,300.803 201.629,287.575 213.083,280.965 " id="polygon3431"></polygon>
            </g>
            <g id="g3433">
              <g id="g3435">
                <g id="g3437">
                  <rect style="fill:#bb71ac" x="210.666" y="215.024" width="4.8340001" height="27.514999" id="rect3439"></rect>
                </g>
              </g>
              <polygon style="fill:#bb71ac" points="201.632,254.87 201.632,241.646 213.083,235.031 224.537,241.646 224.537,254.87 213.083,261.478 " id="polygon3441"></polygon>
            </g>
          </g>
          <g id="g3443">
            <g id="g3445">
              <g id="g3447">
                <g id="g3449">
                  <rect style="fill:#b3c80d" x="156.888" y="268.80701" width="27.511999" height="4.8330002" id="rect3451"></rect>
                </g>
              </g>
              <polygon style="fill:#b3c80d" points="178.666,277.833 178.666,264.609 190.117,257.998 201.569,264.609 201.569,277.833 190.117,284.446 " id="polygon3453"></polygon>
              <polygon style="fill:#b3c80d" points="147.241,275.435 147.241,267.008 154.538,262.794 161.837,267.008 161.837,275.435 154.538,279.649 " id="polygon3455"></polygon>
            </g>
            <g id="g3457">
              <g id="g3459">
                <g id="g3461">
                  <rect style="fill:#f9b233" x="241.767" y="268.80701" width="27.511999" height="4.8330002" id="rect3463"></rect>
                </g>
              </g>
              <polygon style="fill:#f9b233" points="247.5,264.609 247.5,277.833 236.05,284.446 224.596,277.833 224.596,264.609 236.05,257.998 " id="polygon3465"></polygon>
              <polygon style="fill:#f9b233" points="278.924,267.008 278.924,275.435 271.627,279.649 264.328,275.435 264.328,267.008 271.627,262.794 " id="polygon3467"></polygon>
            </g>
          </g>
        </g>
        <g id="g3469"></g>
      </g>
    </g>
  </g>
</svg>
