<?xml version="1.0"?>

<!-- Created with Inkscape (http://www.inkscape.org/) -->

<svg xmlns:dc="http://purl.org/dc/elements/1.1/" xmlns:cc="http://creativecommons.org/ns#" xmlns:rdf="http://www.w3.org/1999/02/22-rdf-syntax-ns#" xmlns:svg="http://www.w3.org/2000/svg" xmlns="http://www.w3.org/2000/svg" xmlns:sodipodi="http://sodipodi.sourceforge.net/DTD/sodipodi-0.dtd" xmlns:inkscape="http://www.inkscape.org/namespaces/inkscape" width="5.8747258" height="4.7093759" viewBox="0 0 5.8747258 4.7093759" version="1.1" id="svg11607" inkscape:version="0.92pre1 unknown" sodipodi:docname="robots.svg">
  <defs id="defs11601"></defs>
  <sodipodi:namedview id="base" pagecolor="#ffffff" bordercolor="#666666" borderopacity="1.0" inkscape:pageopacity="0.0" inkscape:pageshadow="2" inkscape:zoom="0.35" inkscape:cx="-380.32673" inkscape:cy="-456.81468" inkscape:document-units="mm" inkscape:current-layer="layer1" showgrid="false" fit-margin-top="0" fit-margin-left="0" fit-margin-right="0" fit-margin-bottom="0" inkscape:window-width="1879" inkscape:window-height="1056" inkscape:window-x="41" inkscape:window-y="24" inkscape:window-maximized="1"></sodipodi:namedview>
  <metadata id="metadata11604">
    <rdf:rdf>
      <cc:work rdf:about="">
        <dc:format>image/svg+xml</dc:format>
        <dc:type rdf:resource="http://purl.org/dc/dcmitype/StillImage"></dc:type>
        <dc:title></dc:title>
      </cc:work>
    </rdf:rdf>
  </metadata>
  <g inkscape:label="Calque 1" inkscape:groupmode="layer" id="layer1" transform="translate(-23.520971,-23.258407)">
    <g id="g4304" transform="matrix(0.06527473,0,0,0.06527473,23.194597,22.349326)">
      <g id="g4244" display="none" style="display:none">
        <rect id="rect4242" height="912.422" width="1286.936" display="inline" y="-285.155" x="-27.879" style="display:inline;fill:#000000"></rect>
      </g>
      <g id="g4272">
        <g id="g4270">
          <circle id="circle4246" r="1.2920001" cy="46.606998" cx="84.764"></circle>
          <path id="path4248" d="m 12.28,32.037 v 7.426 c -2.802,1.164 -4.778,3.927 -4.778,7.145 0,4.265 3.47,7.734 7.734,7.734 1.789,0 3.433,-0.616 4.745,-1.64 l 8.57,5.201 v 6.559 h -9.029 c -5.958,0 -10.806,4.847 -10.806,10.806 0,5.959 4.847,10.806 10.806,10.806 l 60.956,-0.442 c 5.715,0 10.365,-4.65 10.365,-10.364 0,-5.714 -4.65,-10.364 -10.365,-10.364 H 73.537 C 72.865,64.707 71.25,65.126 71.45,64.51 v -6.607 l 8.569,-5.201 c 1.312,1.023 2.956,1.64 4.745,1.64 4.265,0 7.734,-3.47 7.734,-7.734 0,-3.218 -1.977,-5.981 -4.778,-7.145 V 32.037 C 91.89,31.022 95,27.263 95,22.781 c 0,-3.219 -1.614,-6.195 -4.318,-7.96 l -1.107,1.695 -1.107,1.695 c 1.555,1.015 2.483,2.724 2.483,4.57 0,3.024 -2.457,5.485 -5.477,5.485 -3.024,0 -5.485,-2.461 -5.485,-5.485 0,-1.847 0.928,-3.555 2.483,-4.57 l -1.107,-1.695 -1.107,-1.695 c -2.704,1.766 -4.318,4.741 -4.318,7.96 0,4.48 3.109,8.237 7.28,9.254 v 6.993 c -3.528,0.717 -6.191,3.843 -6.191,7.579 0,0.842 0.14,1.65 0.389,2.41 L 71.449,52.64 V 35.376 C 71.449,23.549 61.827,13.927 50,13.927 c -11.827,0 -21.449,9.622 -21.449,21.449 V 52.64 l -5.969,-3.623 c 0.25,-0.759 0.389,-1.568 0.389,-2.41 0,-3.736 -2.663,-6.862 -6.191,-7.579 v -6.993 c 4.171,-1.017 7.28,-4.774 7.28,-9.254 0,-3.219 -1.614,-6.195 -4.318,-7.96 l -1.107,1.695 -1.107,1.695 c 1.555,1.015 2.483,2.724 2.483,4.57 0,3.024 -2.461,5.485 -5.485,5.485 -3.02,0 -5.477,-2.461 -5.477,-5.485 0,-1.846 0.928,-3.555 2.483,-4.57 L 10.425,16.516 9.318,14.821 C 6.614,16.587 5,19.563 5,22.781 c 0,4.482 3.11,8.241 7.28,9.256 z m 72.484,10.328 c 2.343,0 4.242,1.899 4.242,4.242 0,2.343 -1.899,4.242 -4.242,4.242 -2.343,0 -4.242,-1.899 -4.242,-4.242 -0.001,-2.343 1.899,-4.242 4.242,-4.242 z M 32.543,35.376 c 0,-9.626 7.831,-17.457 17.457,-17.457 9.626,0 17.457,7.831 17.457,17.457 V 64.462 H 32.543 Z m 37.959,32.875 c 3.869,0 7.017,3.147 7.017,7.017 0,3.87 -3.147,7.017 -7.017,7.017 h -50.98 c -3.869,0 -7.017,-3.147 -7.017,-7.017 0,-3.87 3.147,-7.017 7.017,-7.017 z M 15.236,42.365 c 2.343,0 4.242,1.899 4.242,4.242 0,2.343 -1.899,4.242 -4.242,4.242 -2.343,0 -4.242,-1.899 -4.242,-4.242 0,-2.343 1.899,-4.242 4.242,-4.242 z" inkscape:connector-curvature="0"></path>
          <circle id="circle4250" r="1.2920001" cy="46.606998" cx="15.236"></circle>
          <path id="path4252" d="m 17.819,75.268 c 0,2.81 2.286,5.096 5.096,5.096 2.81,0 5.096,-2.286 5.096,-5.096 0,-2.81 -2.286,-5.096 -5.096,-5.096 -2.81,0 -5.096,2.286 -5.096,5.096 z m 5.096,-2.951 c 1.627,0 2.951,1.324 2.951,2.951 0,1.627 -1.324,2.951 -2.951,2.951 -1.627,0 -2.952,-1.324 -2.952,-2.951 0,-1.627 1.325,-2.951 2.952,-2.951 z" inkscape:connector-curvature="0"></path>
          <path id="path4254" d="m 65.058,80.363 c 2.81,0 5.096,-2.286 5.096,-5.096 0,-2.81 -2.286,-5.096 -5.096,-5.096 -2.81,0 -5.096,2.286 -5.096,5.096 0,2.81 2.286,5.096 5.096,5.096 z m 0,-8.046 c 1.627,0 2.952,1.324 2.952,2.951 0,1.627 -1.324,2.951 -2.952,2.951 -1.627,0 -2.951,-1.324 -2.951,-2.951 0,-1.627 1.324,-2.951 2.951,-2.951 z" inkscape:connector-curvature="0"></path>
          <path id="path4256" d="m 43.987,80.363 c 2.81,0 5.096,-2.286 5.096,-5.096 0,-2.81 -2.286,-5.096 -5.096,-5.096 -2.81,0 -5.096,2.286 -5.096,5.096 0,2.81 2.286,5.096 5.096,5.096 z m 0,-8.046 c 1.627,0 2.951,1.324 2.951,2.951 0,1.627 -1.324,2.951 -2.951,2.951 -1.627,0 -2.952,-1.324 -2.952,-2.951 0,-1.627 1.324,-2.951 2.952,-2.951 z" inkscape:connector-curvature="0"></path>
          <path id="path4258" d="m 51.096,22.335 c -6.726,0 -12.197,5.472 -12.197,12.197 0,6.725 5.471,12.198 12.197,12.198 6.726,0 12.197,-5.472 12.197,-12.197 0,-6.725 -5.471,-12.198 -12.197,-12.198 z m 0,18.887 c -3.695,0 -6.69,-2.995 -6.69,-6.69 0,-3.695 2.995,-6.69 6.69,-6.69 3.695,0 6.69,2.995 6.69,6.69 0,3.695 -2.995,6.69 -6.69,6.69 z" inkscape:connector-curvature="0"></path>
          <circle id="circle4260" r="2.0380001" cy="34.532001" cx="51.096001"></circle>
          <rect id="rect4262" height="4.4809999" width="4.2470002" y="52.826" x="58.574001"></rect>
          <rect id="rect4264" height="4.4809999" width="4.2470002" y="52.826" x="51.442001"></rect>
          <rect id="rect4266" height="4.4809999" width="4.2470002" y="52.826" x="44.310001"></rect>
          <rect id="rect4268" height="4.4809999" width="4.2470002" y="52.826" x="37.179001"></rect>
        </g>
      </g>
    </g>
  </g>
</svg>
